<svg width="65" height="55" viewBox="0 0 65 55" fill="none" xmlns="http://www.w3.org/2000/svg">
<path fill-rule="evenodd" clip-rule="evenodd" d="M17.5025 0.116999C16.9678 0.279749 16.475 0.7045 16.1283 1.301L15.8005 1.8655L15.7668 8.644L15.733 15.4225L8.91851 15.425C-0.859116 15.4288 0.0180834 14.527 0.0217334 24.5722C0.0257084 34.461 -0.872541 33.5443 8.85876 33.5933L15.733 33.6283L15.7668 40.1608C15.8145 49.455 15.0338 48.6803 24.361 48.6858L30.569 48.6893L31.1645 49.6003C36.4063 57.618 48.7455 56.4952 52.735 47.6377C53.8643 45.1307 53.973 44.097 53.973 35.8512V29.0443L54.3003 28.9715C59.055 27.916 62.5913 23.4835 64.2238 16.5325C65.0835 12.8718 65.2628 7.509 64.5915 5.535C63.305 1.75225 58.2085 -1.14475 56.2 0.764749C54.2778 2.5925 56.9713 5.8555 59.3425 4.5715C60.057 4.18475 61.2705 5.481 61.5808 6.96275C61.748 7.7615 61.7515 11.3422 61.586 12.47C61.518 12.934 61.4355 13.5305 61.4025 13.7955C61.088 16.3307 59.7838 20.0355 58.5015 22.0342C55.3555 26.9392 49.377 26.989 46.1935 22.136C43.3425 17.79 41.8363 8.25475 43.5853 5.6205C44.165 4.7465 44.8075 4.38425 45.3723 4.613C47.9305 5.6485 50.2913 2.289 48.1838 0.611501C46.4613 -0.759249 41.9005 1.57175 40.4255 4.57675C38.7025 8.087 39.7303 17.0422 42.4583 22.2913C44.2923 25.8197 47.9518 28.9192 50.2843 28.9192H50.6378V35.999C50.6378 44.5187 50.5938 44.8867 49.2923 47.1758C46.2093 52.599 37.9075 53.2825 34.6575 48.3808C33.6328 46.8353 33.6733 47.169 33.6325 39.9813L33.5965 33.6305L40.003 33.5945C45.9928 33.561 46.439 33.544 46.8605 33.332C47.471 33.025 48.084 32.271 48.2435 31.6302C48.495 30.6195 48.4798 30.5938 47.3303 30.0948C42.593 28.038 39.4413 23.5578 38.1738 17.0783L37.8495 15.4225H35.728H33.6063V8.8125C33.6063 4.1915 33.5655 2.0795 33.4705 1.79325C33.248 1.1205 32.7778 0.591749 32.1315 0.287249L31.522 0L24.6735 0.00925064C20.907 0.0142506 17.68 0.0624992 17.5025 0.116999Z" fill="white"/>
</svg>
