<svg width="334" height="213" viewBox="0 0 334 213" fill="none" xmlns="http://www.w3.org/2000/svg">
<g style="mix-blend-mode:soft-light">
<path fill-rule="evenodd" clip-rule="evenodd" d="M60.3482 0.000283144C56.8964 0.129669 53.2928 1.87391 50.2988 4.8605L47.467 7.68861L36.8155 47.7314L26.1658 87.7747L-14.6216 77.1611C-73.1439 61.9335 -66.504 57.9678 -81.9666 117.392C-97.1861 175.891 -101.149 169.066 -42.985 184.534L-1.89752 195.461L-11.7668 234.155C-25.8067 289.204 -29.2859 283.405 26.527 297.985L63.6758 307.687L65.8353 314.004C84.8457 369.605 160.425 382.21 197.953 336.039C208.577 322.97 210.82 317.025 223.531 268.251L234.023 227.987L236.095 228.067C266.178 229.24 294.174 208.537 314.658 169.968C325.447 149.654 334.787 118.214 333.811 105.49C331.944 81.1084 305.909 56.0235 290.943 64.1859C276.623 71.9999 287.713 95.5013 303.883 91.6049C308.755 90.4308 314.019 99.9911 313.593 109.24C313.362 114.224 307.864 135.41 305.135 141.823C304.013 144.462 302.598 147.862 301.993 149.378C296.203 163.884 282.686 183.763 271.932 193.586C245.543 217.693 209.687 208.663 198.115 174.992C187.751 144.838 193.435 86.0874 207.962 73.2334C212.78 68.9683 217.183 67.828 220.21 70.0608C233.926 80.1768 253.232 63.9867 243.205 50.7767C235.01 39.983 204.122 46.6578 190.661 62.1322C174.939 80.2072 167.286 134.781 175.521 170.084C181.057 193.816 198.181 217.857 212.14 221.495L214.257 222.047L203.344 263.923C190.211 314.318 189.379 316.426 178.062 327.936C151.25 355.207 100.514 346.301 88.6196 312.239C84.869 301.498 84.5972 303.536 95.4322 260.957L105.006 223.336L143.404 233.115C179.301 242.257 181.999 242.853 184.848 242.257C188.976 241.394 193.806 237.89 195.748 234.348C198.812 228.761 198.76 228.586 192.65 223.84C167.469 204.286 155.512 172.87 157.915 132.567L158.527 122.268L145.83 118.959L133.132 115.65L143.321 76.5509C150.444 49.2177 153.455 36.6616 153.329 34.8204C153.034 30.4934 151.035 26.6325 147.636 23.8233L144.431 21.1739L103.431 10.5476C80.8818 4.70247 61.4939 -0.0441145 60.3482 0.000283144Z" fill="white"/>
</g>
</svg>
