<svg width="240" height="49" viewBox="0 0 240 49" fill="none" xmlns="http://www.w3.org/2000/svg">
<path fill-rule="evenodd" clip-rule="evenodd" d="M37.9499 0.625807C28.3408 3.14351 23.6591 14.7047 28.6346 23.6292C36.2462 37.2814 58.0172 31.8091 58.1562 16.2089C58.2532 5.32887 48.5533 -2.15199 37.9499 0.625807ZM187.394 0.610667C176.42 3.57081 172.695 18.1059 180.727 26.6209C186.822 33.0814 197.153 33.0993 203.536 26.6595C204.682 25.5035 205.619 24.4638 205.619 24.3482C205.618 24.1858 201.533 21.4479 200.792 21.1128C200.709 21.0757 199.887 21.7617 198.966 22.6383C192.062 29.2081 181.599 23.228 183.327 13.6994C184.698 6.13323 192.974 3.35406 198.606 8.56836L200.175 10.0209L202.639 8.40047L205.103 6.78003L204.495 5.92612C201.049 1.08683 193.884 -1.14051 187.394 0.610667ZM220.268 0.356079C211.889 2.03776 206.377 10.5315 208.17 18.9963C211.589 35.1332 235.399 35.5488 239.493 19.5426C242.419 8.10115 232.249 -2.04878 220.268 0.356079ZM5.84665 0.556994L0.000687706 0.629933L0 15.6315C0 23.8824 0.0502306 30.6834 0.11147 30.7453C0.172022 30.8066 1.62388 30.8196 3.33652 30.7735L6.45148 30.6903V25.4656V20.2403H8.58248H10.7142L14.2 25.5248L17.6858 30.8093L21.2721 30.746C23.2442 30.7116 24.8784 30.6621 24.9031 30.6359C24.9279 30.6098 23.216 28.015 21.098 24.8698L17.2475 19.1518L18.5308 18.5016C25.9002 14.7666 24.418 2.73341 16.3647 0.916869C14.7236 0.54668 12.5933 0.473736 5.84665 0.556994ZM58.5952 3.30727V6.26397H63.5673H68.5401V18.4933V30.7226H71.631H74.7218L74.7679 23.1296C74.7934 18.9536 74.8409 15.3549 74.8739 15.1334C74.9069 14.9118 74.9468 12.8255 74.962 10.4971L74.9909 6.26397H79.6946H84.3984V3.30727V0.350567H71.4968H58.5952V3.30727ZM87.8546 14.2292C84.9543 21.7486 82.3252 28.5393 82.0121 29.3196L81.443 30.7391L84.847 30.6634L88.2516 30.5884L89.3037 27.4301L90.3565 24.2718H96.069H101.781L102.788 27.4976L103.795 30.7226H107.236H110.677L108.553 25.0115C107.384 21.8697 104.894 15.187 103.018 10.1613C101.142 5.13482 99.6023 1.00356 99.5961 0.980852C99.5899 0.958146 98.1318 0.853563 96.3559 0.748975L93.1274 0.557687L87.8546 14.2292ZM119.811 0.909299C119.396 1.15013 119.34 1.65174 119.34 5.06739V8.95162H115.472C110.014 8.95162 110.371 8.4796 110.658 15.3329C110.936 21.9605 110.532 21.4342 115.388 21.5064L119.206 21.5628L119.281 25.3913C119.374 30.1467 119.397 30.1852 122.218 30.1852H124.205L124.626 31.1933C126.451 35.5681 131.249 40.3379 135.222 41.7292C138.232 42.7827 139.308 42.8143 172.454 42.8164L204.737 42.8185L205.648 44.3639C209.67 51.1842 220.241 48.3162 220.262 40.3991C220.285 31.5641 208.083 29.3286 204.928 37.5897L204.467 38.7966L171.244 38.7243L138.02 38.6521L135.896 37.6379C133.434 36.4619 130.711 33.9002 129.47 31.5917L128.714 30.1852H129.786C131.58 30.1852 131.704 29.8838 131.704 25.4966V21.653L135.723 21.4589C138.22 21.3385 139.838 21.1479 139.994 20.9546C140.131 20.7832 140.331 18.249 140.439 15.3219C140.69 8.46378 141.053 8.95162 135.694 8.95162H131.704V5.04743V1.14325L131.015 0.881088C130.094 0.531541 120.418 0.555624 119.811 0.909299ZM145.681 10.1179C145.681 15.3419 145.76 22.1759 145.858 25.3039L146.035 30.9917H148.991H151.947L151.791 20.7777C151.634 10.4386 151.667 9.97343 152.457 11.3124C152.7 11.7232 155.12 15.1403 157.835 18.9055C160.549 22.67 163.612 26.9237 164.641 28.3577L166.512 30.9648L169.401 30.9779L172.29 30.9917V15.8056V0.618919H169.203H166.115L166.262 10.228C166.344 15.5132 166.454 20.0559 166.507 20.3229C166.712 21.3537 165.944 20.3759 160.002 12.0425C156.628 7.31192 153.391 2.80635 152.808 2.03019L151.748 0.618919H148.714H145.681V10.1179ZM45.6028 6.57154C53.3183 9.45874 53.4215 21.9392 45.7528 24.8161C39.3233 27.2278 33.4595 22.9273 33.467 15.8056C33.4753 8.54496 39.2112 4.18044 45.6028 6.57154ZM228.063 6.85778C234.876 10.3863 235.048 20.8569 228.347 24.2718C219.648 28.7058 211.185 19.3259 215.901 10.4778C218.088 6.37475 223.83 4.66623 228.063 6.85778ZM14.778 6.8681C16.9991 8.00344 17.7168 9.99545 16.7177 12.2544C15.8356 14.2492 14.6954 14.693 10.1472 14.8162L6.45148 14.9159V10.59V6.26397H10.0226C13.1968 6.26397 13.7259 6.33071 14.778 6.8681ZM97.8194 13.0148C98.6871 15.5841 99.477 17.9593 99.5754 18.2917L99.755 18.8965H96.1082C94.1024 18.8965 92.462 18.8098 92.462 18.7038C92.462 18.3158 96.0373 8.13694 96.1385 8.23809C96.1956 8.2952 96.9525 10.4448 97.8194 13.0148ZM214.726 36.3814C218.655 38.5895 217.038 44.6997 212.524 44.6997C209.806 44.6997 207.976 42.8432 207.976 40.0847C207.976 36.7502 211.724 34.6942 214.726 36.3814Z" fill="white"/>
</svg>
